<?xml version="1.0" standalone="no"?>
<!DOCTYPE svg PUBLIC "-//W3C//DTD SVG 20010904//EN"
 "http://www.w3.org/TR/2001/REC-SVG-20010904/DTD/svg10.dtd">
<svg version="1.0" xmlns="http://www.w3.org/2000/svg"
 width="180.000000pt" height="180.000000pt" viewBox="0 0 180.000000 180.000000"
 preserveAspectRatio="xMidYMid meet">

<g transform="translate(0.000000,180.000000) scale(0.100000,-0.100000)"
fill="#000000" stroke="none">
<path d="M0 900 l0 -900 900 0 900 0 0 900 0 900 -900 0 -900 0 0 -900z m442
283 l-3 -193 111 0 111 0 -3 193 -3 192 43 -4 43 -3 -3 -228 c-2 -126 0 -226
5 -223 4 2 7 105 7 229 l0 225 38 -3 37 -3 5 -470 5 -470 -90 0 -90 0 3 203 3
202 -111 0 -111 0 3 -202 3 -203 -85 0 -85 0 0 475 0 475 85 0 85 0 -3 -192z
m1093 -284 c0 -444 -1 -475 -17 -474 -10 1 -21 5 -25 10 -5 4 -2 5 5 1 19 -11
14 4 -14 41 -14 18 -29 31 -34 28 -4 -2 -14 3 -21 13 -13 15 -12 16 4 3 9 -7
17 -9 17 -4 0 13 -35 45 -42 38 -3 -3 -11 3 -19 12 -13 16 -12 17 4 4 9 -7 17
-9 17 -4 0 13 -35 45 -42 38 -3 -3 -11 3 -19 12 -13 16 -12 17 4 4 9 -7 17
-10 17 -6 0 14 -62 85 -70 80 -4 -2 -16 5 -26 18 l-19 22 23 -19 c12 -11 22
-15 22 -9 0 13 -35 45 -42 38 -3 -3 -11 3 -19 12 -13 16 -12 17 4 4 9 -7 17
-9 17 -4 0 13 -35 45 -42 38 -3 -3 -11 3 -19 12 -13 16 -12 17 4 4 29 -22 19
-2 -23 52 l-41 50 3 -244 3 -244 -85 0 -85 0 0 472 c0 445 1 472 18 469 9 -1
23 -9 30 -16 10 -12 9 -12 -5 -1 -10 7 -18 9 -18 4 0 -13 35 -45 42 -38 3 3
11 -3 19 -12 13 -16 12 -17 -3 -4 -31 24 -19 0 33 -65 28 -35 54 -62 59 -59 4
2 16 -5 26 -18 l19 -22 -22 19 c-13 11 -23 15 -23 9 0 -13 35 -45 42 -38 3 3
13 -5 24 -17 l19 -23 -22 19 c-13 11 -23 15 -23 9 0 -13 35 -45 42 -38 3 3 11
-3 19 -12 13 -16 12 -17 -3 -4 -10 7 -18 9 -18 4 0 -13 35 -45 42 -38 3 3 11
-3 19 -12 13 -16 12 -17 -3 -4 -10 7 -18 9 -18 4 0 -13 35 -45 42 -38 3 3 11
-3 19 -12 13 -16 12 -17 -3 -4 -27 20 -21 0 10 -37 l27 -33 -3 148 c-1 81 -3
191 -5 243 l-2 95 90 0 90 0 0 -476z m-434 354 c13 -16 12 -17 -3 -4 -10 7
-18 15 -18 17 0 8 8 3 21 -13z m40 -50 c13 -16 12 -17 -3 -4 -10 7 -18 15 -18
17 0 8 8 3 21 -13z m180 -540 c13 -16 12 -17 -3 -4 -17 13 -22 21 -14 21 2 0
10 -8 17 -17z m150 -190 c13 -16 12 -17 -3 -4 -17 13 -22 21 -14 21 2 0 10 -8
17 -17z"/>
<path d="M744 665 c0 -132 2 -185 3 -117 2 68 2 176 0 240 -1 64 -3 9 -3 -123z"/>
<path d="M1440 1023 l-1 -348 -37 40 c-42 46 -33 30 16 -28 l32 -38 0 361 c0
198 -2 360 -5 360 -3 0 -5 -156 -5 -347z"/>
<path d="M1060 1134 c0 -4 6 -12 13 -18 7 -6 55 -64 106 -128 51 -65 95 -118
98 -118 3 0 -10 19 -29 43 -19 23 -67 84 -107 135 -70 88 -81 100 -81 86z"/>
<path d="M1295 840 c10 -11 20 -20 23 -20 3 0 -3 9 -13 20 -10 11 -20 20 -23
20 -3 0 3 -9 13 -20z"/>
<path d="M1335 790 c10 -11 20 -20 23 -20 3 0 -3 9 -13 20 -10 11 -20 20 -23
20 -3 0 3 -9 13 -20z"/>
</g>
</svg>
